<svg width="74" height="74" viewBox="0 0 74 74" fill="none" xmlns="http://www.w3.org/2000/svg">
<g style="mix-blend-mode:color-dodge" opacity="0.2">
<path d="M38.8673 73.9999C19.7794 73.9999 4.28784 58.5084 4.28784 39.4205C4.28784 20.3327 19.7794 4.84106 38.8673 4.84106C57.9551 4.84106 73.4467 20.3327 73.4467 39.4205C73.4467 58.5084 57.9551 73.9999 38.8673 73.9999Z" fill="#EEEEEE"/>
<path d="M37.4841 70.5419C55.054 70.5419 69.2972 56.2987 69.2972 38.7289C69.2972 21.159 55.054 6.91577 37.4841 6.91577C19.9142 6.91577 5.67102 21.159 5.67102 38.7289C5.67102 56.2987 19.9142 70.5419 37.4841 70.5419Z" fill="#001317"/>
<path d="M40.7346 27.5251C39.4897 27.7326 38.1065 27.8709 36.7234 27.8709C35.3402 27.8709 33.957 27.7326 32.7121 27.5251L17.4972 63.4878C18.3271 64.1794 19.2262 64.8018 20.1252 65.3551L35.4093 29.2541C36.2392 29.3233 37.1383 29.3924 37.9682 29.3924C38.8673 29.3924 39.6972 29.3233 40.5271 29.2541L55.6037 64.8709C55.8112 64.7326 56.0878 64.5251 56.2953 64.3868L40.7346 27.5251Z" fill="#EEEEEE"/>
<path d="M37.9682 29.3925C37.1383 29.3925 36.2393 29.3233 35.4094 29.2541L20.1252 65.3551C25.1047 68.6056 31.1215 70.542 37.4841 70.542C44.2617 70.542 50.486 68.4672 55.6038 64.871L40.5271 29.2541C39.6972 29.3233 38.8673 29.3925 37.9682 29.3925Z" fill="#001317"/>
<path d="M74 35.1328C74 41.2188 57.4019 46.1982 37 46.1982C16.529 46.1982 -2.6382e-07 41.2188 -2.6382e-07 35.1328C-2.6382e-07 29.0468 16.5981 22.0618 37 22.0618C57.4019 22.0618 74 29.0468 74 35.1328Z" fill="#EEEEEE"/>
<path d="M70.1962 33.4039C70.1962 38.6599 55.3271 42.9478 37 42.9478C18.6729 42.9478 3.80371 38.7291 3.80371 33.473C3.80371 28.2169 18.6729 22.131 37 22.131C55.3271 22.0618 70.1962 28.1478 70.1962 33.4039Z" fill="#001317"/>
<path d="M55.4654 27.3869C55.4654 27.2486 55.3962 27.1794 55.3962 27.1794C53.1832 19.5028 54.6355 0 37 0C19.2953 0 20.7476 19.5028 18.5346 27.1103C18.5346 27.1103 18.4654 27.2486 18.4654 27.3178C18.4654 27.4561 18.3962 27.5944 18.3962 27.6636C18.3962 30.4991 26.6953 32.7813 36.9308 32.7813H36.8617C47.0972 32.7813 55.3962 30.4991 55.3962 27.6636C55.4654 27.6636 55.4654 27.4561 55.4654 27.3869Z" fill="#EEEEEE"/>
<path d="M37.4841 31.398C26.4878 31.398 20.471 28.77 20.3327 27.6634L20.4019 27.456C20.886 25.8653 21.1626 23.9289 21.5084 21.6466C22.8224 12.656 24.4822 1.45222 37.3458 1.38306H37.4149H37.4841H37.5533C50.486 1.38306 52.1458 12.656 53.4598 21.6466C53.8056 23.9289 54.0822 25.8653 54.5664 27.456L54.6355 27.6634C54.4972 28.8391 48.5495 31.398 37.4841 31.398Z" fill="#001317"/>
<path d="M53.6673 27.2485C53.6673 28.77 46.6131 30.7065 37.4841 30.7065C28.3552 30.7065 21.301 28.77 21.301 27.2485C21.301 25.727 28.3552 24.4822 37.4841 24.4822C46.6131 24.4822 53.6673 25.727 53.6673 27.2485Z" fill="#EEEEEE"/>
<path d="M27.1103 29.8075C29.8766 30.3608 33.4729 30.7066 37.4841 30.7066C41.2187 30.7066 44.5383 30.3608 47.2355 29.8767C44.5383 29.1159 40.9421 28.6318 36.9309 28.6318C33.1963 28.701 29.7383 29.1159 27.1103 29.8075Z" fill="#001317"/>
<path d="M41.9103 26.142C41.9103 25.7962 41.9794 25.6578 43.1551 25.1046C44.4692 24.4821 46.4056 23.4448 47.1664 20.7476C47.9963 17.9812 47.0972 15.9756 46.2673 14.7999C46.2673 14.7999 45.7832 14.1083 45.0916 13.555C45.1608 13.4167 45.2299 13.2092 45.2991 13.0018C45.7832 11.8261 45.9907 11.342 46.0598 11.1345C46.5439 10.927 46.9589 10.512 47.2355 9.95878C47.5813 9.26719 47.5122 8.50644 47.0972 7.95317C46.6131 7.26158 45.8523 6.84663 45.0916 6.84663C44.7458 6.84663 44.4692 6.91579 44.1925 7.05411C43.0168 7.60738 43.1551 8.85224 43.2243 9.33635V9.40551C43.0168 9.95878 42.5327 11.1345 42.2561 11.8261C42.2561 11.8952 42.1869 11.9644 42.1178 12.1027C41.357 11.8261 40.043 11.4803 38.5907 11.4803C38.1757 11.4803 37.7608 11.4803 37.415 11.5494C37.415 11.4111 37.4841 11.342 37.4841 11.2036C37.4841 11.0653 37.5533 10.8578 37.5533 10.7195C37.6224 10.1663 37.8299 9.33635 38.0374 8.78308C39.2823 8.22981 39.3514 7.19242 39.2822 6.77747C39.1439 5.60177 38.1757 4.63354 37.0692 4.63354C36.7234 4.63354 36.3776 4.7027 36.0318 4.91018C35.6168 5.11766 34.6486 5.8784 35.2019 7.3999C34.9944 8.16065 34.6486 9.61298 34.5103 10.1663C34.4411 10.3737 34.2337 11.4111 34.2337 11.8952C34.2337 12.0335 34.2337 12.1027 34.2337 12.241C34.2337 12.3793 34.2337 12.7251 34.1645 12.7943C33.3346 13.555 31.1907 16.3214 31.3981 19.5027C31.4673 21.0934 32.1589 22.6149 32.7122 23.7906C32.9888 24.3438 33.4037 25.2429 33.4037 25.4504C33.1963 26.2111 32.0206 28.4242 31.0523 30.2915L30.6374 31.1214C32.643 31.3289 34.9252 31.4672 37.4841 31.4672C39.628 31.4672 41.6336 31.398 43.3626 31.1906L42.9477 30.4298C42.8094 30.0149 41.9103 28.1476 41.9103 26.142Z" fill="#001317"/>
<path d="M40.5271 26.142C40.5271 23.4448 44.6766 24.3439 45.8523 20.3327C47.0972 16.2523 43.7776 14.3158 43.7776 14.3158C43.7776 14.3158 43.2243 14.3158 43.985 12.4485C44.7458 10.5812 44.9533 10.3046 44.9533 10.3046C44.9533 10.3046 45.0224 9.95882 45.4374 9.88966C45.8523 9.8205 46.2673 9.12891 45.9906 8.71396C45.714 8.29901 45.2299 8.09153 44.8149 8.29901C44.4 8.50648 44.7458 9.47471 44.6075 9.75134C44.4691 10.028 43.5701 12.3794 43.5701 12.3794C43.5701 12.3794 42.9476 13.97 42.3944 13.6934C41.8411 13.4168 39.628 12.5869 37.6224 13.0018C35.5476 13.3476 36.1009 11.6878 36.2392 10.6504C36.3776 9.61302 36.8617 8.09153 36.8617 8.09153C36.8617 8.09153 36.8617 7.88405 37.0691 7.74573C37.2766 7.67658 37.9682 7.53826 37.899 6.98499C37.8299 6.43172 37.3458 5.87844 36.6542 6.22424C36.0318 6.57003 36.7234 7.19246 36.585 7.60742C36.4467 8.02237 35.8243 10.5812 35.8243 10.5812C35.8243 10.5812 35.686 11.6186 35.686 12.0336C35.686 12.4485 35.7551 13.2784 35.2019 13.8317C34.5794 14.385 32.7121 16.7364 32.8505 19.4336C32.9888 22.1308 35.2019 24.5513 34.7869 25.8654C34.4411 26.9719 32.7813 30.0149 32.2972 30.914C33.8878 31.0523 35.6168 31.1214 37.4149 31.1214C38.0374 31.1214 38.6598 31.1214 39.2822 31.1214C40.1121 31.1214 41.0112 31.0523 41.7719 30.9831C41.4953 30.499 40.5271 28.4934 40.5271 26.142Z" fill="#EEEEEE"/>
<path d="M41.9794 17.9814C41.9794 22.9608 39.6972 23.8599 37.4841 23.8599C35.3402 23.8599 33.5421 21.6468 33.5421 18.9496C33.5421 16.2524 35.3402 14.0393 37.4841 14.0393C39.6972 14.1085 41.9794 14.7309 41.9794 17.9814Z" fill="#001317"/>
<path d="M36.585 17.9122C36.585 18.8113 36.3775 19.8487 35.686 19.7795C34.9944 19.7795 34.4411 19.0188 34.4411 18.1197C34.4411 17.2206 35.0635 16.5291 35.7551 16.5291C36.5159 16.5982 36.585 17.0132 36.585 17.9122Z" fill="#EEEEEE"/>
<path d="M37.8991 18.6728C37.8991 17.7738 38.1066 16.7364 38.7982 16.8055C39.4898 16.8055 40.043 17.5663 40.043 18.4653C40.043 19.3644 39.4206 20.056 38.729 20.056C37.9683 19.9868 37.8991 19.5719 37.8991 18.6728Z" fill="#EEEEEE"/>
</g>
</svg>
