
<svg width="180" height="180" viewBox="0 0 180 180" fill="none" xmlns="http://www.w3.org/2000/svg">
<path d="M180 85.4579C180 100.262 139.626 112.374 90 112.374C40.2056 112.374 -6.41725e-07 100.262 -6.41725e-07 85.4579C-6.41725e-07 70.6542 40.3738 53.6635 90 53.6635C139.626 53.6635 180 70.6542 180 85.4579Z" fill="#002A35"/>
<path d="M170.748 81.2523C170.748 94.0374 134.58 104.467 90.0001 104.467C45.4207 104.467 9.25244 94.2056 9.25244 81.4206C9.25244 68.6355 45.4207 53.8318 90.0001 53.8318C134.58 53.6635 170.748 68.4673 170.748 81.2523Z" fill="#07BBED"/>
<path d="M132.392 68.972C132.392 75.8692 110.187 81.4206 82.7663 81.4206C55.3457 81.4206 33.1401 78.0561 33.1401 71.1589C33.1401 64.2617 55.3457 56.5234 82.7663 56.5234C110.187 56.5234 132.392 62.0748 132.392 68.972Z" fill="#00A7D7"/>
<path d="M134.916 66.6168C134.916 66.2804 134.748 66.1121 134.748 66.1121C129.364 47.4393 132.897 0 89.9999 0C46.9345 0 50.4672 47.4393 45.084 65.9439C45.084 65.9439 44.9158 66.2804 44.9158 66.4486C44.9158 66.785 44.7476 67.1215 44.7476 67.2897C44.7476 74.1869 64.9345 79.7383 89.8317 79.7383H89.6634C114.561 79.7383 134.748 74.1869 134.748 67.2897C134.916 67.2897 134.916 66.785 134.916 66.6168Z" fill="#002A35"/>
<path d="M91.1774 76.3738C64.4297 76.3738 49.7942 69.9813 49.4578 67.2897L49.626 66.785C50.8036 62.9159 51.4765 58.2056 52.3176 52.6542C55.5138 30.785 59.5512 3.5327 90.8409 3.36447H91.0092H91.1774H91.3456C122.804 3.36447 126.841 30.785 130.037 52.6542C130.878 58.2056 131.551 62.9159 132.729 66.785L132.897 67.2897C132.561 70.1495 118.093 76.3738 91.1774 76.3738Z" fill="#EFECEA"/>
<path d="M91.1776 76.3738C118.094 76.3738 132.561 69.9813 132.897 67.2897L132.729 66.7851C131.888 64.0935 131.383 60.8972 130.879 57.1963C120.28 55.3458 106.486 54 94.2057 53.8318H94.0375C93.3646 53.8318 92.6917 53.8318 92.0188 53.8318C91.8505 53.8318 91.8505 53.8318 91.6823 53.8318C90.8412 53.8318 91.5141 53.8318 90.673 53.8318C89.8318 53.8318 90.3365 53.8318 89.6636 53.8318C89.4954 53.8318 89.4954 53.8318 89.3272 53.8318C88.6543 53.8318 87.9814 53.8318 87.3085 53.8318H87.1403C75.1963 54 62.0748 55.1776 51.6449 57.0281C51.1402 60.729 50.4674 63.9252 49.6262 66.7851C49.6262 66.7851 49.458 67.1215 49.458 67.2897C49.7945 70.1495 64.43 76.3738 91.1776 76.3738Z" fill="#5DADDA"/>
<path d="M130.542 66.2804C130.542 69.9813 113.383 74.6916 91.1775 74.6916C68.9719 74.6916 51.813 69.9813 51.813 66.2804C51.813 62.5794 68.9719 59.5514 91.1775 59.5514C113.383 59.5514 130.542 62.5794 130.542 66.2804Z" fill="#002A35"/>
<path d="M65.9438 72.5047C72.6728 73.8505 81.4205 74.6916 91.1775 74.6916C100.262 74.6916 108.336 73.8505 114.897 72.6729C108.336 70.8224 99.5887 69.6449 89.8317 69.6449C80.7476 69.8131 72.3364 70.8224 65.9438 72.5047Z" fill="#00A7D7"/>
<path d="M101.944 63.5888C101.944 62.7477 102.112 62.4112 104.972 61.0654C108.168 59.5514 112.879 57.028 114.729 50.4673C116.748 43.7383 114.561 38.8598 112.542 36C112.542 36 111.365 34.3178 109.682 32.972C109.851 32.6355 110.019 32.1308 110.187 31.6262C111.365 28.7664 111.869 27.5888 112.037 27.0841C113.215 26.5794 114.224 25.5701 114.897 24.2243C115.738 22.5421 115.57 20.6916 114.561 19.3458C113.383 17.6636 111.533 16.6542 109.682 16.6542C108.841 16.6542 108.168 16.8224 107.495 17.1589C104.636 18.5047 104.972 21.5327 105.14 22.7103V22.8785C104.636 24.2243 103.458 27.0841 102.785 28.7664C102.785 28.9346 102.617 29.1028 102.449 29.4393C100.598 28.7664 97.4019 27.9252 93.8692 27.9252C92.8599 27.9252 91.8505 27.9252 91.0094 28.0935C91.0094 27.757 91.1776 27.5888 91.1776 27.2523C91.1776 26.9159 91.3459 26.4112 91.3459 26.0748C91.5141 24.729 92.0188 22.7103 92.5234 21.3645C95.5515 20.0187 95.7197 17.4953 95.5515 16.486C95.215 13.6262 92.8599 11.271 90.1683 11.271C89.3272 11.271 88.4861 11.4393 87.6449 11.9439C86.6356 12.4486 84.2805 14.2991 85.6262 18C85.1216 19.8505 84.2805 23.3832 83.944 24.729C83.7758 25.2336 83.2711 27.757 83.2711 28.9346C83.2711 29.271 83.2711 29.4393 83.2711 29.7757C83.2711 30.1122 83.2711 30.9533 83.1029 31.1215C81.0842 32.972 75.8692 39.7009 76.3739 47.4393C76.5421 51.3084 78.2244 55.0093 79.5702 57.8692C80.2431 59.215 81.2524 61.4019 81.2524 61.9065C80.7477 63.757 77.8879 69.1402 75.5328 73.6822L74.5234 75.7009C79.4019 76.2056 84.9533 76.5421 91.1776 76.5421C96.3926 76.5421 101.271 76.3738 105.477 75.8692L104.467 74.0187C104.131 73.0093 101.944 68.4673 101.944 63.5888Z" fill="#EFECEA"/>
<path d="M98.5795 63.5888C98.5795 57.028 108.673 59.215 111.533 49.458C114.561 39.5327 106.486 34.8224 106.486 34.8224C106.486 34.8224 105.14 34.8224 106.991 30.2804C108.841 25.7383 109.346 25.0654 109.346 25.0654C109.346 25.0654 109.514 24.2243 110.523 24.0561C111.533 23.8879 112.542 22.2056 111.869 21.1963C111.196 20.1869 110.019 19.6823 109.009 20.1869C108 20.6916 108.841 23.0467 108.505 23.7196C108.168 24.3925 105.981 30.1122 105.981 30.1122C105.981 30.1122 104.467 33.9813 103.122 33.3084C101.776 32.6355 96.3926 30.6168 91.5141 31.6262C86.4673 32.4673 87.8131 28.4299 88.1496 25.9066C88.486 23.3832 89.6636 19.6823 89.6636 19.6823C89.6636 19.6823 89.6636 19.1776 90.1683 18.8411C90.6729 18.6729 92.3552 18.3365 92.187 16.9907C92.0187 15.6449 90.8412 14.2991 89.1589 15.1402C87.6449 15.9813 89.3272 17.4953 88.9907 18.5047C88.6543 19.514 87.1402 25.7383 87.1402 25.7383C87.1402 25.7383 86.8038 28.2617 86.8038 29.271C86.8038 30.2804 86.972 32.2991 85.6262 33.6449C84.1122 34.9907 79.5701 40.7103 79.9066 47.271C80.243 53.8318 85.6262 59.7196 84.6169 62.9159C83.7757 65.6075 79.7384 73.0094 78.5608 75.1963C82.4299 75.5327 86.6356 75.7009 91.0094 75.7009C92.5234 75.7009 94.0374 75.7009 95.5514 75.7009C97.5701 75.7009 99.7571 75.5327 101.608 75.3645C100.935 74.1869 98.5795 69.3084 98.5795 63.5888Z" fill="#00A18B"/>
<path d="M102.112 43.7383C102.112 55.8505 96.5608 58.0374 91.1777 58.0374C85.9627 58.0374 81.5889 52.6542 81.5889 46.0935C81.5889 39.5327 85.9627 34.1495 91.1777 34.1495C96.5608 34.3178 102.112 35.8318 102.112 43.7383Z" fill="#EFECEA"/>
<path d="M88.9906 43.5701C88.9906 45.757 88.4859 48.2804 86.8037 48.1122C85.1214 48.1122 83.7756 46.2617 83.7756 44.0748C83.7756 41.8879 85.2897 40.2056 86.9719 40.2056C88.8224 40.3739 88.9906 41.3832 88.9906 43.5701Z" fill="#002A35"/>
<path d="M92.187 45.4206C92.187 43.2337 92.6917 40.7103 94.3739 40.8785C96.0562 40.8785 97.402 42.729 97.402 44.9159C97.402 47.1028 95.888 48.7851 94.2057 48.7851C92.3552 48.6168 92.187 47.6075 92.187 45.4206Z" fill="#002A35"/>
<path d="M128.36 137.944C128.36 138.204 128.213 138.531 127.763 138.923C127.316 139.311 126.626 139.709 125.692 140.102C123.826 140.886 121.097 141.603 117.686 142.21C110.873 143.421 101.441 144.173 91.0094 144.173C80.5773 144.173 71.1454 143.421 64.3326 142.21C60.9221 141.603 58.1925 140.886 56.3272 140.102C55.3924 139.709 54.7032 139.311 54.2558 138.923C53.8055 138.531 53.6589 138.204 53.6589 137.944C53.6589 137.684 53.8055 137.357 54.2558 136.965C54.7032 136.577 55.3924 136.179 56.3272 135.786C58.1925 135.002 60.9221 134.284 64.3326 133.678C71.1454 132.467 80.5773 131.715 91.0094 131.715C101.441 131.715 110.873 132.467 117.686 133.678C121.097 134.284 123.826 135.002 125.692 135.786C126.626 136.179 127.316 136.577 127.763 136.965C128.213 137.357 128.36 137.684 128.36 137.944Z" stroke="#C4C4C4"/>
<path d="M148.547 169.907C148.547 170.394 148.264 170.948 147.544 171.56C146.828 172.168 145.742 172.778 144.296 173.373C141.408 174.56 137.2 175.64 131.962 176.551C121.496 178.371 107.016 179.5 91.0093 179.5C75.0023 179.5 60.523 178.371 50.0564 176.551C44.819 175.64 40.6105 174.56 37.7229 173.373C36.2769 172.778 35.191 172.168 34.4748 171.56C33.7547 170.948 33.4719 170.394 33.4719 169.907C33.4719 169.419 33.7547 168.865 34.4748 168.253C35.191 167.645 36.2769 167.035 37.7229 166.44C40.6105 165.253 44.819 164.173 50.0564 163.262C60.523 161.442 75.0023 160.313 91.0093 160.313C107.016 160.313 121.496 161.442 131.962 163.262C137.2 164.173 141.408 165.253 144.296 166.44C145.742 167.035 146.828 167.645 147.544 168.253C148.264 168.865 148.547 169.419 148.547 169.907Z" stroke="#C4C4C4"/>
</svg>
