<svg width="270" height="270" viewBox="0 0 270 270" fill="none" xmlns="http://www.w3.org/2000/svg">
<path d="M270 128.187C270 150.393 209.439 168.561 135 168.561C60.3084 168.561 -9.62587e-07 150.393 -9.62587e-07 128.187C-9.62587e-07 105.981 60.5607 80.4953 135 80.4953C209.439 80.4953 270 105.981 270 128.187Z" fill="#002A35"/>
<path d="M256.121 121.879C256.121 141.056 201.869 156.701 135 156.701C68.1308 156.701 13.8785 141.308 13.8785 122.131C13.8785 102.953 68.1308 80.7477 135 80.7477C201.869 80.4953 256.121 102.701 256.121 121.879Z" fill="#07BBED"/>
<path d="M198.589 103.458C198.589 113.804 165.28 122.131 124.15 122.131C83.0187 122.131 49.7103 117.084 49.7103 106.738C49.7103 96.3925 83.0187 84.785 124.15 84.785C165.28 84.785 198.589 93.1121 198.589 103.458Z" fill="#00A7D7"/>
<path d="M202.374 99.9252C202.374 99.4206 202.122 99.1682 202.122 99.1682C194.047 71.1589 199.346 0 135 0C70.4019 0 75.701 71.1589 67.6262 98.9159C67.6262 98.9159 67.3739 99.4206 67.3739 99.6729C67.3739 100.178 67.1215 100.682 67.1215 100.935C67.1215 111.28 97.4019 119.607 134.748 119.607H134.495C171.841 119.607 202.122 111.28 202.122 100.935C202.374 100.935 202.374 100.178 202.374 99.9252Z" fill="#002A35"/>
<path d="M136.766 114.561C96.6449 114.561 74.6916 104.972 74.1869 100.935L74.4393 100.178C76.2056 94.3738 77.215 87.3084 78.4767 78.9813C83.2711 46.1776 89.3271 5.29906 136.262 5.04672H136.514H136.766H137.019C184.206 5.04672 190.262 46.1776 195.056 78.9813C196.318 87.3084 197.327 94.3738 199.094 100.178L199.346 100.935C198.841 105.224 177.14 114.561 136.766 114.561Z" fill="#EFECEA"/>
<path d="M136.766 114.561C177.14 114.561 198.841 104.972 199.346 100.935L199.093 100.178C197.832 96.1402 197.075 91.3458 196.318 85.7944C180.421 83.0187 159.729 81 141.308 80.7477H141.056C140.047 80.7477 139.037 80.7477 138.028 80.7477C137.776 80.7477 137.776 80.7477 137.523 80.7477C136.262 80.7477 137.271 80.7477 136.009 80.7477C134.748 80.7477 135.505 80.7477 134.495 80.7477C134.243 80.7477 134.243 80.7477 133.991 80.7477C132.981 80.7477 131.972 80.7477 130.963 80.7477H130.71C112.794 81 93.1121 82.7664 77.4673 85.5421C76.7103 91.0935 75.7009 95.8879 74.4392 100.178C74.4392 100.178 74.1869 100.682 74.1869 100.935C74.6916 105.224 96.6448 114.561 136.766 114.561Z" fill="#5DADDA"/>
<path d="M195.813 99.4206C195.813 104.972 170.075 112.037 136.766 112.037C103.458 112.037 77.7196 104.972 77.7196 99.4206C77.7196 93.8692 103.458 89.3271 136.766 89.3271C170.075 89.3271 195.813 93.8692 195.813 99.4206Z" fill="#002A35"/>
<path d="M98.9159 108.757C109.009 110.776 122.131 112.037 136.766 112.037C150.393 112.037 162.505 110.776 172.346 109.009C162.505 106.234 149.383 104.467 134.748 104.467C121.122 104.72 108.505 106.234 98.9159 108.757Z" fill="#00A7D7"/>
<path d="M152.916 95.3832C152.916 94.1215 153.168 93.6168 157.458 91.5981C162.252 89.3271 169.318 85.5421 172.093 75.7009C175.121 65.6075 171.841 58.2897 168.813 54C168.813 54 167.047 51.4766 164.523 49.4579C164.776 48.9533 165.028 48.1963 165.28 47.4392C167.047 43.1495 167.804 41.3832 168.056 40.6262C169.822 39.8692 171.336 38.3551 172.346 36.3364C173.607 33.8131 173.355 31.0374 171.841 29.0187C170.075 26.4953 167.299 24.9813 164.523 24.9813C163.262 24.9813 162.252 25.2336 161.243 25.7383C156.953 27.757 157.458 32.2991 157.71 34.0654V34.3178C156.953 36.3364 155.187 40.6262 154.178 43.1495C154.178 43.4019 153.925 43.6542 153.673 44.1589C150.897 43.1495 146.103 41.8878 140.804 41.8878C139.29 41.8878 137.776 41.8879 136.514 42.1402C136.514 41.6355 136.766 41.3832 136.766 40.8785C136.766 40.3738 137.019 39.6168 137.019 39.1121C137.271 37.0935 138.028 34.0654 138.785 32.0467C143.327 30.028 143.579 26.243 143.327 24.729C142.822 20.4393 139.29 16.9065 135.252 16.9065C133.991 16.9065 132.729 17.1589 131.467 17.9159C129.953 18.6729 126.421 21.4486 128.439 27C127.682 29.7757 126.421 35.0748 125.916 37.0935C125.664 37.8505 124.907 41.6355 124.907 43.4019C124.907 43.9065 124.907 44.1589 124.907 44.6636C124.907 45.1682 124.907 46.4299 124.654 46.6822C121.626 49.4579 113.804 59.5514 114.561 71.1589C114.813 76.9626 117.336 82.514 119.355 86.8037C120.364 88.8224 121.878 92.1028 121.878 92.8598C121.121 95.6355 116.832 103.71 113.299 110.523L111.785 113.551C119.103 114.308 127.43 114.813 136.766 114.813C144.589 114.813 151.907 114.561 158.215 113.804L156.701 111.028C156.196 109.514 152.916 102.701 152.916 95.3832Z" fill="#EFECEA"/>
<path d="M147.869 95.3832C147.869 85.5421 163.009 88.8224 167.299 74.1869C171.841 59.2991 159.729 52.2337 159.729 52.2337C159.729 52.2337 157.71 52.2337 160.486 45.4206C163.262 38.6075 164.019 37.5981 164.019 37.5981C164.019 37.5981 164.271 36.3365 165.785 36.0841C167.299 35.8318 168.813 33.3084 167.804 31.7944C166.794 30.2804 165.028 29.5234 163.514 30.2804C162 31.0374 163.262 34.5701 162.757 35.5794C162.252 36.5888 158.972 45.1682 158.972 45.1682C158.972 45.1682 156.701 50.972 154.682 49.9626C152.664 48.9533 144.589 45.9252 137.271 47.4393C129.701 48.7009 131.72 42.6449 132.224 38.8598C132.729 35.0748 134.495 29.5234 134.495 29.5234C134.495 29.5234 134.495 28.7664 135.252 28.2617C136.009 28.0093 138.533 27.5047 138.28 25.486C138.028 23.4673 136.262 21.4486 133.738 22.7103C131.467 23.972 133.991 26.243 133.486 27.757C132.981 29.271 130.71 38.6075 130.71 38.6075C130.71 38.6075 130.206 42.3925 130.206 43.9065C130.206 45.4206 130.458 48.4486 128.439 50.4673C126.168 52.486 119.355 61.0654 119.86 70.9066C120.364 80.7477 128.439 89.5795 126.925 94.3738C125.664 98.4112 119.607 109.514 117.841 112.794C123.645 113.299 129.953 113.551 136.514 113.551C138.785 113.551 141.056 113.551 143.327 113.551C146.355 113.551 149.636 113.299 152.411 113.047C151.402 111.28 147.869 103.963 147.869 95.3832Z" fill="#00A18B"/>
<path d="M153.168 65.6075C153.168 83.7757 144.841 87.0561 136.766 87.0561C128.944 87.0561 122.383 78.9813 122.383 69.1402C122.383 59.2991 128.944 51.2243 136.766 51.2243C144.841 51.4766 153.168 53.7477 153.168 65.6075Z" fill="#EFECEA"/>
<path d="M133.486 65.3551C133.486 68.6355 132.729 72.4206 130.206 72.1682C127.682 72.1682 125.664 69.3925 125.664 66.1121C125.664 62.8318 127.935 60.3084 130.458 60.3084C133.234 60.5607 133.486 62.0748 133.486 65.3551Z" fill="#002A35"/>
<path d="M138.28 68.1308C138.28 64.8505 139.037 61.0654 141.561 61.3178C144.084 61.3178 146.103 64.0935 146.103 67.3738C146.103 70.6542 143.832 73.1776 141.308 73.1776C138.533 72.9252 138.28 71.4112 138.28 68.1308Z" fill="#002A35"/>
<path d="M192.79 206.916C192.79 207.408 192.511 207.962 191.808 208.573C191.109 209.18 190.048 209.79 188.634 210.384C185.811 211.57 181.696 212.65 176.573 213.561C166.335 215.381 152.172 216.509 136.514 216.509C120.856 216.509 106.693 215.381 96.455 213.561C91.3321 212.65 87.2167 211.57 84.3937 210.384C82.9802 209.79 81.9192 209.18 81.2197 208.573C80.5172 207.962 80.2383 207.408 80.2383 206.916C80.2383 206.424 80.5172 205.869 81.2197 205.259C81.9192 204.651 82.9802 204.042 84.3937 203.448C87.2167 202.261 91.3321 201.182 96.455 200.271C106.693 198.451 120.856 197.322 136.514 197.322C152.172 197.322 166.335 198.451 176.573 200.271C181.696 201.182 185.811 202.261 188.634 203.448C190.048 204.042 191.109 204.651 191.808 205.259C192.511 205.869 192.79 206.424 192.79 206.916Z" stroke="#C4C4C4"/>
<path d="M223.07 254.86C223.07 255.696 222.584 256.59 221.478 257.53C220.375 258.467 218.719 259.394 216.539 260.291C212.183 262.082 205.849 263.705 197.986 265.073C182.268 267.807 160.534 269.5 136.514 269.5C112.494 269.5 90.7597 267.807 75.0417 265.073C67.1786 263.705 60.8453 262.082 56.4893 260.291C54.3091 259.394 52.653 258.467 51.5504 257.53C50.4437 256.59 49.9579 255.696 49.9579 254.86C49.9579 254.024 50.4437 253.13 51.5504 252.19C52.653 251.252 54.3091 250.325 56.4893 249.429C60.8453 247.638 67.1786 246.014 75.0417 244.647C90.7597 241.913 112.494 240.22 136.514 240.22C160.534 240.22 182.268 241.913 197.986 244.647C205.849 246.014 212.183 247.638 216.539 249.429C218.719 250.325 220.375 251.252 221.478 252.19C222.584 253.13 223.07 254.024 223.07 254.86Z" stroke="#C4C4C4"/>
</svg>
