
<svg width="140" height="40" viewBox="0 0 140 40" fill="none" xmlns="http://www.w3.org/2000/svg">
<path d="M0 38.0612C3.1702 38.0612 6.44266 36.6326 6.95398 33.6735C7.15851 32.3469 7.26077 30.7143 7.26077 29.0816L7.4653 1.55702e-06L13.0898 0.714284L12.8853 29.0816C12.8853 31.0204 12.6808 32.9592 12.2717 34.6939C11.3514 38.2653 5.72681 40 0 40V38.0612H0Z" fill="#EEEEEE"/>
<path d="M43.5647 30.5102L37.9402 29.7959C35.8949 30.5102 33.236 30.8163 30.6794 30.8163C24.9526 30.8163 19.328 28.9796 18.4077 25.5102C17.9986 23.8775 17.7941 21.9388 17.7941 19.8979C17.7941 17.9592 17.9986 16.0204 18.4077 14.2857C19.328 10.7143 24.9526 8.97958 30.6794 8.97958C36.4062 8.97958 42.133 10.8163 43.0534 14.3877C43.4624 15.9184 43.667 17.6531 43.667 19.4898V30.5102H43.5647ZM37.8379 19.8979C37.8379 18.3673 37.7356 16.8367 37.5311 15.5102C37.0198 12.6531 33.8496 11.1224 30.5771 11.1224C27.4069 11.1224 24.1345 12.551 23.7254 15.4082C23.5209 16.7347 23.4186 18.3673 23.4186 20C23.4186 21.6326 23.5209 23.1633 23.7254 24.5918C24.2367 27.449 27.5092 28.8775 30.6794 28.8775C33.3383 28.8775 35.9971 28.3673 37.9402 27.3469V19.8979H37.8379Z" fill="#EEEEEE"/>
<path d="M73.7327 30.5102L68.1081 29.7959C66.0628 30.5102 63.404 30.8163 60.8474 30.8163C55.1205 30.8163 49.496 28.9796 48.5756 25.5102C48.1666 23.8775 47.962 21.9388 47.962 19.8979C47.962 17.9592 48.1666 16.0204 48.5756 14.2857C49.496 10.7143 55.1205 8.97958 60.8474 8.97958C66.5742 8.97958 72.301 10.8163 73.2213 14.3877C73.6304 15.9184 73.8349 17.6531 73.8349 19.4898V30.5102H73.7327ZM68.1081 19.8979C68.1081 18.3673 68.0059 16.8367 67.8013 15.5102C67.29 12.6531 64.1198 11.1224 60.8474 11.1224C57.6772 11.1224 54.4047 12.551 53.9956 15.4082C53.7911 16.7347 53.6888 18.3673 53.6888 20C53.6888 21.6326 53.7911 23.1633 53.9956 24.5918C54.507 27.449 57.7794 28.8775 60.9496 28.8775C63.6085 28.8775 66.2674 28.3673 68.2104 27.3469V19.8979H68.1081Z" fill="#EEEEEE"/>
<path d="M86.4134 1.12243V9.99998H92.447V12.1428H86.4134V29.7959V30.5102H80.7888V12.1428H77.2096V9.99998H80.7888V0.408145L86.4134 1.12243Z" fill="#EEEEEE"/>
<path d="M102.469 30.5102H96.8444V20V9.69389L102.06 10.4082C104.207 9.59185 106.866 9.18369 109.627 9.18369C110.343 9.18369 111.059 9.18369 111.775 9.28573V11.3265C111.059 11.3265 110.446 11.2245 109.73 11.2245C106.559 11.2245 103.287 12.6531 102.776 15.6123C102.571 16.9388 102.469 18.4694 102.469 20V22.347V30.5102Z" fill="#EEEEEE"/>
<path d="M139.898 30.5102L134.273 29.7959C132.228 30.5102 129.569 30.8163 127.012 30.8163C121.286 30.8163 115.661 28.9796 114.741 25.5102C114.332 23.8775 114.127 21.9388 114.127 19.8979C114.127 17.9592 114.332 16.0204 114.741 14.2857C115.661 10.7143 121.286 8.97958 127.012 8.97958C132.739 8.97958 138.466 10.8163 139.386 14.3877C139.795 15.9184 140 17.6531 140 19.4898V30.5102H139.898ZM134.273 19.8979C134.273 18.3673 134.171 16.8367 133.966 15.5102C133.455 12.6531 130.285 11.1224 127.012 11.1224C123.842 11.1224 120.57 12.551 120.161 15.4082C119.956 16.7347 119.854 18.3673 119.854 20C119.854 21.6326 119.956 23.1633 120.161 24.5918C120.672 27.449 123.944 28.8775 127.115 28.8775C129.774 28.8775 132.432 28.3673 134.375 27.3469V19.8979H134.273Z" fill="#EEEEEE"/>
</svg>
